<?xml version="1.0" encoding="UTF-8"?>
<svg width="1200pt" height="1200pt" version="1.1" viewBox="0 0 1200 1200" xmlns="http://www.w3.org/2000/svg">
 <path d="m1156.5 600c0-106.33-30.059-205.78-82.055-290.33l-0.003907-96.191h-74.832c-101.13-104.35-242.59-169.41-399.04-169.41-156.44 0-297.89 65.055-399.02 169.41h-69.551v87.973c-55.188 86.305-87.336 188.72-87.336 298.55s32.16 212.24 87.336 298.55v257.38h942.45l-0.003907-265.59c51.996-84.551 82.059-184 82.059-290.33zm-29.508 0c0 82.078-18.898 159.8-52.547 229.12l-0.003907-458.23c33.648 69.312 52.551 147.04 52.551 229.12zm-215.68 424.57c-9.2539-12.719-27.938-11.051-37.633-10.105-4.1641 0.43359-9.2773 1.7539-14.594 3.2148-4.1641 1.1523-11.148 3.0703-12.121 3.1914-1.8711-1.1055-5.8555-6.457-8.0039-9.3125-1.4766-1.9688-2.8906-3.8516-4.2461-5.5078-4.9062-6.0234-8.1602-13.512-10.836-25.078-1.3672-6-2.375-11.578-3.3594-16.906-3.1562-17.242-6.1328-33.504-18.348-52.535-3.6133-5.6055-7.5352-11.074-11.473-16.559-9.4453-13.105-18.348-25.477-22.105-39.551l-4.7539-41.004c-3.2031-12.707-13.621-47.855-15.926-57.254-2.7969-11.426-8.6055-20.988-13.727-29.438-4.4297-7.3086-8.6289-14.207-10.332-21.254-2.4844-10.332-7.5469-19.512-12.012-27.602-5.2305-9.4336-9.7422-17.594-9.7305-25.668 0.058594-16.332-3.0977-31.211-6.168-45.602-2.4492-11.594-4.7539-22.523-5.4102-33.875-0.38281-6.3945-1.1758-12.445-1.9688-18.406-1.3086-9.8633-2.3398-18.445-1.2461-27.742 0.070312-0.60156 0.13281-1.1758 0.22656-1.7656 1.043-6.7305 3.9727-13.297 7.1641-20.258 3.3125-7.2461 6.7578-14.746 8.6172-23.461 1.6211-7.6211 0.82812-14.508-0.60156-20.746 0.76953-2.3047 1.6094-4.3672 2.4375-5.207 7.8945-7.7539 39.562-8.0391 51.492-8.1484 9.5625-0.085938 19.414-0.98438 29.281-1.9219 6.3008-0.60156 12.422-1.1758 18.371-1.5l14.797 4.5977c17.398 5.4258 41.137 3.9102 60.215 2.7227l7.4883-0.44531c11.23-0.61328 20.965-3.7578 29.578-6.5625 7.2461-2.3281 14.062-4.5469 20.855-4.9688 6.6484-0.40625 13.309-0.39453 19.871-0.3125 12.562 0.011719 25.273 0.12109 38.363-2.5078 6.168-1.2461 13.043-1.4023 20.316-1.5859l6.3477-0.19141c5.8672-0.21484 10.535-1.4023 14.305-2.3398 2.1602-0.55078 4.2969-1.1523 6.7695-1.3203l1.6914-0.13281v450.19c-35.293 55.508-80.676 104.01-133.59 142.86zm133.62-660.66c-2.1836-2.7734-5.1602-5.207-9.2891-7.5469-5.6289-3.2266-16.633-6.8281-24.059-7.1055-8.6172-0.046874-14.953 3.2266-18.949 5.5547-1.1172 0.67188-2.2812 1.3438-2.9414 1.5469-2.1953 0.74219-4.6445 1.3086-7.1289 1.9219-4.043 0.97266-8.1719 2.0039-12.035 3.4062-4.8359 1.7539-9.4219 3.9727-13.906 6.1797-5.4727 2.7109-10.211 5.0273-14.711 5.8672-16.992 3.2539-36.742 2.1133-55.871 0.94922-10.176-0.58984-20.242-1.1641-29.93-1.1641h-0.16797c4.6328-1.7383 9.1914-3.5156 13.789-5.3867 5.6289-2.2812 11.426-4.6562 17.773-6.9375 17.004-6.0703 29.977-16.078 42.504-25.766l8.2695-6.3008c5.6758-4.2344 12.742-6.1328 20.941-8.3047 9.3477-2.4609 19.945-5.2812 29.484-12.359 3.1445-2.3633 5.5312-4.7539 7.8008-7.1055 2.5312-2.6289 3.4219-3.4922 5.293-4.2227 5.0156-1.9922 12.086-3.4922 18.312-4.8008l6.2266-1.3438c6.4922 8.8906 12.648 18.012 18.574 27.312l-0.003907 45.605zm-219.23 51.324c-14.039-1.2852-28.547 0.14453-42.516 1.4531-9.0234 0.83984-18.07 1.7148-28.309 1.8125-7.5859 0.070312-15.383 0.28906-23.039 0.86328 0.16797-0.13281 0.39453-0.37109 0.53906-0.44531 5.5312-2.8672 13.008-3.5742 20.93-4.3203 6.5039-0.63672 13.246-1.2617 20.125-3.1211 4.3906-1.1758 8.2578-2.8789 11.879-4.7539 11.242 1.2344 22.871 2.4492 34.043 0.43359 13.777-2.4844 23.785-4.1289 36.758-4.1289 9.1328 0 18.625 0.57422 28.211 1.1406 20.93 1.2109 42.551 2.4844 63.098-1.4297 8.4258-1.5859 15.445-5.0391 22.246-8.3633 3.5391-1.7539 7.1289-3.5508 10.945-4.9336 2.8438-1.0312 5.9414-1.7539 8.9297-2.4727 3.3008-0.80469 6.5391-1.6211 9.4062-2.5781 3.5898-1.1758 6.3477-2.7617 8.5664-4.0664 1.0078-0.60156 2.5195-1.4766 3.0469-1.5469 1.9688 0.10938 7.6797 1.8125 10.066 3 0.43359 2.1016 1.2344 4.7891 2.8203 7.9805 1.3672 2.7461 2.8789 5.0508 4.4023 7.0078l-10.824 9.1797-1.9453 0.046876c-8.2188 0.20312-16.738 0.40625-25.391 2.1719-10.164 2.0508-20.879 2.0508-32.387 1.8945-7.2852 0-14.531-0.070313-21.863 0.38281-10.512 0.67188-19.465 3.5625-28.129 6.3477-7.5469 2.4492-14.699 4.7773-22.078 5.1719l-7.7539 0.46875c-10.559 0.67187-34.477-1.4883-34.477-1.4883zm-195.13 540.73c1.4297 4.7031 2.6523 8.7461 2.8672 12.805 0.43359 8.5547-0.50391 16.535-1.5117 24.984-0.70703 5.9531-1.3906 11.953-1.7031 18.312-1.3672 29.051 0.9375 53.867 7.2461 78.059l1.6914 6.457 6 3.0117c0.32422 0.16797 0.66016 0.30078 0.99609 0.45703 6 6.793 15.371 14.617 24.227 19.645-0.97266 0.023437-1.9688 0.058593-2.9414 0.097656-12.781 0.45703-26.004 0.89844-37.871-0.37109-2.0273-0.23828-3.1328-0.55078-3.4336-0.55078h-0.035156c-0.28906-0.66016-0.92578-2.7461-1.2344-8.3867-0.21484-3.8398 0.99609-8.9414 2.2695-14.328 2.125-8.8789 4.5117-18.949 1.9219-29.375-1.8359-7.4766-1.6797-15.215-1.4883-23.426 0.21484-10.262 0.46875-21.898-3.3359-34.262-1.9453-6.3359-5.0039-12.66-7.957-18.758-4.0312-8.3516-8.2188-17.004-8.3047-23.242-0.26563-17.281 1.9805-33.875 4.3555-51.434 2.6758-19.691 5.4492-40.055 4.4297-61.754-0.44531-10.066 0.097656-31.656 0.67188-54.504 0.34766-13.488 0.60156-25.055 0.76953-35.316 3.5039 7.7539 7.2461 15.191 11.52 21.445 5.1719 7.5703 11.09 14.051 16.836 20.34 2.6406 2.8789 5.207 5.7109 7.6211 8.5312-1.5352 18.77-2.5312 31.895-3.6836 48.035-1.1523 16.141-9.625 28.98-13.055 36.133-7.3086 15.191-10.766 22.297-10.934 34.766-0.13281 8.8047 2.1094 16.148 4.0664 22.629zm-262.12 66.082c-2.4492 6.0977-6.5039 13.754-10.078 20.555-2.0273 3.8164-3.9727 7.4883-5.5664 10.754-0.52734 1.0781-1.5117 3.1094-2.4102 4.6562-0.13281-0.058594-0.25391-0.13281-0.38281-0.20312-0.625-0.43359-1.2109-1.0078-1.8242-1.5859-2.3398-2.1367-5.5664-5.0273-10.117-7.043-3.2539-1.4648-6.7188-2.5078-10.176-3.4805 2.0156-1.4531 4.0312-2.8555 5.5664-3.8984 4.1641-2.8672 7.9219-5.5312 10.355-7.7539 16.188-14.664 24.457-31.859 26.797-55.766 2.832-28.777 8.1367-51.707 16.176-70.094 4.7891-10.992 13.129-20.125 21.949-29.809 7.8359-8.5938 15.949-17.473 22.367-28.402 2.5781-4.3672 4.5859-8.6523 6.5391-12.816 2.9531-6.3359 16.895-41.746 21.098-50.41 6.9727-14.375 23.93-49.512 26.074-57 2.8672-10.078 7.5-20.578 13.738-31.848v73.414c-0.023437 7.6914 0.10938 15.133 1.1523 22.715-5.4258 8.6289-10.859 17.016-17.062 24.961-6.6953 8.543-14.172 16.441-22.078 24.793-4.9922 5.2812-9.9609 10.547-14.734 15.961-12.504 14.16-16.094 29.125-19.246 42.301-2.3516 9.875-4.3906 18.371-9.8398 25.727-14.449 19.414-25.789 41.426-35.281 60.516-3.6484 7.2969-6.0977 14.387-8.4609 21.254-1.3984 4.0078-2.8125 8.1484-4.5547 12.504zm589.54-748.18c0.66016-0.79297 1.2617-1.6094 2.1133-2.3281 4.3906-3.793 9.2539-6.457 14.352-9.2656 5.5781-3.0859 11.578-6.3711 17.062-11.23 5.7852 6.5742 9.4805 11.352 11.773 14.82-4.1992 1.043-8.4492 2.2695-12.301 3.8047-7.8711 3.0977-12.383 7.7539-15.695 11.16-1.2461 1.2852-2.4961 2.6758-4.2109 3.9492-4.9805 3.6953-11.676 5.4609-19.414 7.5352-9.7422 2.5938-20.785 5.5195-31.031 13.141-2.9414 2.207-5.7969 4.4141-8.6758 6.625-11.207 8.6641-21.781 16.836-34.391 21.348-6.7695 2.4102-12.973 4.9336-18.949 7.3672-12.781 5.1953-23.809 9.6719-37.871 12.086-15.625 2.6758-26.062 10.934-35.281 18.238-2.4727 1.957-4.7656 3.625-7.1055 5.2695-3.8516-0.32422-7.6562-0.5625-11.27-0.5625-0.12109-0.011719-0.20313-0.011719-0.27734 0-6.6953 0-12.48-2.125-19.812-4.8008-4.7266-1.7148-9.5273-3.457-14.762-4.7656-4.1992-1.0664-8.4102-1.6094-12.602-2.0742 11.23-0.25391 22.68-0.97266 33.805-5.4375 6.8398-2.7461 14.879-4.2344 23.398-5.8203 11.977-2.2188 24.359-4.5117 35.664-10.703 7.6445-4.1758 14.352-8.7852 20.855-13.234 10.152-6.9727 19.754-13.57 31.391-17.305 6.6133-2.1484 14.328-4.1289 22.441-6.2266 21.516-5.543 45.898-11.82 62.461-23.566 4-2.8398 6.4961-5.8398 8.332-8.0234zm-512.52 92.699c-11.184-5.4102-22.57-8.0625-33.625-10.465-4.3438-0.9375-8.6875-1.8711-12.973-3-9.2266-2.4375-18.516-4.5234-27.805-6.5742-19.789-4.4141-38.508-8.5781-56.102-16.262-8.1133-3.5273-15.66-8.6523-23.641-14.051-9.0586-6.1445-18.422-12.48-29.578-17.258-3.3945-1.4648-6.5742-3.2656-9.6719-5.2812 0.74219 0.38281 1.5 0.75781 2.2695 1.1055 10.262 4.7383 21.312 5.207 31.066 5.6289 6.5391 0.27734 12.719 0.53906 17.543 1.9922 14.316 4.2617 27.707 11.629 41.867 19.379 14.914 8.1836 30.336 16.633 47.699 21.828 19.188 5.7461 38.867 9.4336 57.887 12.996 11.207 2.1016 22.105 4.1523 32.746 6.5391-0.33594 0.023437-0.63672 0.023437-0.97266 0.035156-12.125 0.97656-24.387 2.1758-36.711 3.3867zm-6.2656 30.219c0.76953 0.5625 1.4648 1.1055 2.207 1.6797 1.1875 0.96094 2.4844 1.9688 4.1406 3.1562 6.9609 5.0508 13.031 7.2969 18.898 9.457 1.8477 0.68359 3.7695 1.4023 5.8672 2.2695 4.0781 1.7148 7.0195 4.7891 9.6016 9.0234-16.262-0.42188-33.203-4.5977-48.73-8.5078-13.246-3.3008-32.09-3.3594-44.074-1.9805-7.7539 0.92578-13.992 3.6953-18.996 5.9023-4.1641 1.8359-7.4414 3.3008-10.789 3.5391-18.012 1.2109-39.059-2.1836-58.297-9.2891-10.477-3.8867-20.965-5.3867-31.309-5.8555 7.3789-0.61328 14.543-1.6914 21.539-2.7461 12.156-1.8477 23.629-3.5742 34.848-2.6523 38.172 3.082 77.148-0.3125 115.09-3.9961zm88.379 271.03c-0.50391-9.2383-1.0312-18.781 0.875-25.246 2.9414-9.9727 6.7578-19.668 10.465-29.027 9.8867-25.043 20.125-50.914 14.699-84.457-1.9805-12.227-5.9531-23.543-9.793-34.488-3.1914-9.0859-6.1914-17.652-7.9336-26.293-2.7734-13.691-8.1836-22.645-13.402-31.297-1.7148-2.8672-3.5156-5.8555-5.3281-9.2148l-5.4102-10.066-1.0664 0.26562c-4.0312-9.457-9.625-18.793-18.613-25.703 13.586-0.76953 26.207-0.80469 37.895 0.28906 3.4453 0.33594 7.2852 0.83984 11.363 1.3789 14.242 1.8477 31.176 3.7812 45.602 1.0078 2.8438 0.17969 5.5938 0.25391 8.2188 0.21484v0.92578c2.2422 0 4.3203-0.20312 6.5156-0.25391 0.23828 0 0.49219 0.097656 0.73047 0.097656 0.46875 0 0.9375-0.14453 1.4023-0.16797 11.363-0.37109 22.309-1.2461 32.832-2.2578 17.52-1.6914 34.055-3.2773 51.996-1.8359 4.2109 0.35938 8.4961 0.53906 12.805 0.73047 5.6406 0.23828 10.934 0.61328 15.984 1.2461-4.668 2.7617-8.125 6.168-10.766 9.0117-1.1875 1.2734-2.8203 3.0234-3.5625 3.4336-0.61328 0.35937-2.6875 0.78125-4.1992 1.0938-3.6602 0.71875-8.1953 1.6211-12.875 4.2734-25.523 14.449-18.312 36.289-14.449 48.035 0.19141 0.52734 0.32422 1.0312 0.50391 1.5586-0.33594 1.3555-0.74219 2.7852-1.043 4.0781-0.48047 1.9922-0.91016 3.8516-1.4023 5.5195-4.7148 16.801-9.0352 34.055-11.34 50.965-0.035156 0.28906-0.13281 0.53906-0.16797 0.82812-0.16797 1.1523-0.16797 2.2188-0.26562 3.3242-1.7891 15.445-1.8828 30.574 1.1641 44.734 7.0547 32.902 4.4648 58.609 1.1641 91.117l-1.3398 13.402c-2.125 22.094-2.3398 44.676-2.5547 66.516-0.097656 9.8516-0.37109 19.586-0.64844 29.34-0.50391-0.68359-1.1055-1.332-1.5703-2.0156-12.277-18.047-21.406-49.777-27.469-70.801-4.5586-15.863-6.7188-23.09-9.8867-27.672-3.4688-5.0391-8.7969-7.9219-14.473-7.9219-0.49219 0-0.97266 0.023437-1.4648 0.058593-12.109 1.0547-17.449 12.719-23.652 26.23-1.6445 3.6016-3.168 7.0781-4.5703 9.3008-7.8359 12.371-15.422 21.707-25.379 31.199-7.2461 6.9102-13.414 14.316-19.129 21.863v-70.332c0.007813-4.0859-0.23047-8.4883-0.46094-12.988zm47.867 232.8c0.66016-6.6016 3.4805-9.9727 9.3242-16.402 0.58984-0.64844 1.1992-1.3086 1.8008-2.0039-0.82812 9.7188-2.1484 19.441-3.5156 29.473-1.0195 7.668-2.0898 15.469-2.9297 23.41-3.1797-12.109-5.6992-23.605-4.6797-34.477zm7.875 89.758c0.058594-0.30078 0.10938-0.60156 0.17969-0.89844 1.8945 4.7539 4.1172 9.3242 6.2031 13.68 2.5938 5.3398 5.0273 10.402 6.3125 14.605 2.3984 7.8008 2.2422 15.742 2.0391 24.949-0.16797 7.2227-0.32422 15.191 0.89844 23.664-0.023438-0.035156-0.023438-0.070312-0.035157-0.10937-1.6211-4.2461-3.457-8.6055-5.3281-13.078-6.7422-16.043-13.727-32.652-12.551-48.301 0.34766-4.7422 1.3203-9.6133 2.2812-14.512zm-59.258-65.711c5.7852-21.023 7.2344-33.035 8.8438-53.398 1.6094-20.363-1.4414-71.172-1.4414-71.172-0.10938-0.25391-0.14453-0.51562-0.23828-0.76953 10.992-17.773 21.457-34.523 36.289-48.684 1.7656-1.6797 3.3828-3.4062 5.0391-5.1016-3.2266 18.18-4.8594 33.539-4.8594 33.898-0.085937 6.9844 1.0547 16.379 2.375 27.254 1.7148 14.148 4.5859 37.789 1.8008 45.109-1.8008 4.6914-4.957 8.1602-8.9297 12.551-6.8047 7.4766-15.277 16.766-16.859 33.445-1.7539 18.07 3.0234 35.699 7.2461 51.254 0.97266 3.5742 1.9219 7.1055 2.7852 10.598 1.7383 7.043 0.035156 15.816-1.7656 25.094-1.1875 6.0703-2.3164 12.086-2.7461 17.941-1.7148 22.727 7.0664 43.57 14.773 61.934 1.7539 4.1641 3.4688 8.2578 4.9805 12.203 1.2617 3.2773 1.7383 7.6797 2.2422 12.312 0.76953 7.1523 1.6562 15.266 5.5312 23.543 0.40625 0.86328 0.86328 1.7148 1.3438 2.5078-7.4531-0.58984-15.805-1.0547-23.52-1.4766 0.070312-0.35938 0.14453-0.70703 0.23828-1.0547 0.57422-2.6289 1.2227-5.4492 1.8477-9.2656 1.8828-11.172 4.0312-23.809-2.1602-39.203-1.3672-3.4219-2.8789-6.7812-4.4297-10.188-2.9531-6.4922-5.7344-12.613-7.2969-19.117-2.7734-11.438-6.707-20.328-10.477-28.945-1.8359-4.1289-3.7188-8.3867-5.5664-13.188-8.3359-21.512-7.1719-60.379-5.0469-68.082zm416.77-675.48c-2.1484 1.8242-3.8281 3.7578-5.4961 5.7461-1.2734 1.5117-1.9219 2.293-2.7617 2.8789-12.133 8.5938-33.707 14.16-52.754 19.078-8.7227 2.2305-17.039 4.3906-24.156 6.707-15.707 5.0742-27.562 13.188-39.012 21.035-5.8672 4.0312-11.773 8.125-18.336 11.711-7.1523 3.8984-16.738 5.6875-26.867 7.5586-9.5391 1.7773-19.43 3.6133-28.992 7.4648-7.7031 3.0703-17.652 3.2539-28.211 3.4336-10.402 0.19141-21.203 0.35937-32.027 3.2266-6.875 1.8008-12.875 5.2305-18.156 8.2422-2.9141 1.6562-6.0117 3.3828-8.6641 4.4414 13.094-23.52 21.48-50.965 21.48-68.762 0-14.258-4.1641-27.48-10.969-38.953h283.37c-2.7812 1.8008-5.5898 3.7422-8.4453 6.1914zm-293.45 32.75c0 30.191-25.777 74.258-40.477 82.883-2.6172 0.35938-5.2422 0.61328-7.8594 0.74219-15.312-6.7422-46.656-53.844-46.656-83.629 0-26.184 21.301-47.496 47.496-47.496 26.195 0.003906 47.496 21.316 47.496 47.5zm-96.766 74.758c-4.1523-1.7383-8.5078-3.9844-11.809-5.7344-5.3516-2.8438-10.414-5.5195-15.492-7.2617-22.199-7.6211-45.215-11.914-67.477-16.105-19.094-3.5625-37.152-6.9492-54.84-12.254-14.363-4.3086-27.758-11.664-41.977-19.441-14.891-8.1602-30.289-16.609-47.594-21.77-8.3516-2.4961-16.68-2.8555-24.73-3.2031-7.7266-0.32422-15.023-0.63672-20.027-2.9531-6.0117-2.7617-10.488-7.8711-15.672-13.801-3.1445-3.5898-6.7188-7.5586-10.934-11.184h293.79c-6.8047 11.473-10.969 24.695-10.969 38.953 0 20.66 11.473 50.684 27.734 74.754zm-342.2-94.559c7.957-1.5977 11.016 0.74219 20.34 11.438 2.8672 3.2891 6.0703 6.9492 9.8516 10.465-8.6172-6.2539-18.492-12.73-31.824-16.066-1.8477-0.45703-3.7422-0.86328-5.6406-1.2461-0.55078-0.13281-1.2109-0.25391-1.8477-0.39453 1.418-1.5195 4.0586-3.2109 9.1211-4.1953zm-31.812 26.242c5.7227 4.4883 12.898 6.0352 18.574 7.2344 1.4766 0.30078 2.9883 0.61328 4.4414 0.98437 9.6484 2.4102 16.859 7.7539 25.246 13.945 7.0781 5.2422 15.109 11.184 25.262 15.539 8.5547 3.6836 16.367 8.9531 24.648 14.555 8.7344 5.9297 17.773 12.047 28.355 16.68 15.863 6.9102 32.172 11.258 48.266 15.012-8.3633-0.097656-16.738-0.28906-24.938-0.96094-14.52-1.1406-28.309 0.89844-41.629 2.8789-8.9141 1.3438-17.328 2.6172-25.656 2.8555-13.633 0.45703-23.953-3.8281-37.164-9.2031-5.207-2.125-10.547-4.2852-16.273-6.2656-3.1328-1.0547-8.7227-2.2578-15.059-3.4922-5.7617-1.1172-17.27-3.3594-21.504-5.2578l-7.7148-10.945 0.003906-31.863c4.8711-7.3672 9.9219-14.59 15.141-21.695zm71.344 117.75c-1.043 0.035156-2.0898 0.058594-3.1328 0.097656-13.848 0.33594-26.902 0.73047-38.977-2.5195-8.3516-2.2188-16.355-2.8789-24.625-3.2891-0.22656-0.63672-0.42188-1.2734-0.49219-2.0039-0.035156-0.33594-0.085937-0.68359-0.14453-1.0078l1.332-7.043c0.12109-1.4141 0.20313-2.6641 0.23828-3.793 0.9375 0.17969 1.8828 0.37109 2.8555 0.55078 4.6914 0.92578 8.8438 1.668 11.137 2.4492 5.207 1.7891 10.055 3.7695 14.762 5.6875 11.363 4.582 23.016 9.3477 37.047 10.871zm-86.473 22.859 13.176 0.67188c8.8906 0.37109 16.586 0.70703 23.594 2.5664 16.199 4.3203 32.102 3.8516 47.352 3.5039 15.504-0.46875 30.191-0.81641 43.188 3.9727 23.004 8.543 48.73 12.672 70.559 11.062 8.5312-0.57422 15.277-3.5898 20.711-5.9766 4.0195-1.7773 7.1875-3.1914 10.5-3.5742 9.3594-1.0938 24.289-1.0078 33.434 1.2617 20.902 5.293 44.148 10.859 67.789 8.8906 1.2227 3.0586 2.5195 6.1445 4.043 9.1914 10.969 21.875 18.781 51.961 25.273 78.457 2.6992 10.98-1.7656 24.047-6.4922 37.871-2.2812 6.707-4.5117 13.309-6.0234 19.727-0.96094 4.0195-1.8359 8.0742-2.7461 12.145-3.9609 18.191-7.7266 35.363-17.281 49.246-16.262 23.629-26.484 43.848-32.125 63.648-2.6523 9.3125-14.328 30.59-20.746 48.961-6.4219 18.371-21.359 46.754-24.781 54.07-1.5703 3.3594-3.1562 6.8164-5.2305 10.332-4.8711 8.2812-11.617 15.672-18.73 23.484-10.055 11.027-20.461 22.43-27.227 37.871-9.2656 21.254-15.324 47.102-18.48 79.02-1.6211 16.5-6.625 27.168-17.258 36.793-1.7148 1.5469-4.3672 3.3125-7.2734 5.293-5.832 4.0312-12.371 8.5547-17.305 13.922-54.371-38.074-101.24-86.102-137.93-141.48v-460.93zm217.8 637.4c1.4883-3.0469 3.2891-6.4453 5.1953-10.02 3.8984-7.4141 8.3516-15.828 11.375-23.352 1.9219-4.8359 3.5156-9.4219 5.0391-13.859 2.2578-6.5039 4.1875-12.133 6.9961-17.711 8.9297-17.977 19.559-38.617 32.52-56.074 9.0859-12.215 12.168-25.094 14.879-36.445 2.6992-11.281 5.0391-21.023 12.684-29.676 4.5352-5.1719 9.2891-10.176 14.027-15.18 8.0391-8.5078 16.355-17.293 23.879-26.93 1.9062-2.4492 3.5273-4.9688 5.3047-7.4531 0.97266 40.402-9.3945 64.246-13.465 100.07-2.7734 24.469-7.2461 44.953 3.8633 73.645 2.0156 5.2578 4.0938 9.9258 6.0977 14.449 3.5625 8.1133 6.6484 15.109 8.7969 23.977 2.2188 9.2031 5.8672 17.27 9.0977 24.359 1.3555 3.0117 2.7344 5.9766 3.9375 8.9883 3.0703 7.6914 2.0273 13.883 0.30078 24.098-0.42188 2.4492-0.9375 4.7539-1.4297 6.8984-1.0195 4.5586-2.0156 9.7422-1.7148 14.953-53.809-7.5859-105.07-23.293-152.4-45.91 1.9922-3.0039 3.6602-6.0742 5.0156-8.8242zm361.16 41.016c-0.74219-1.2344-1.4883-2.4492-2.4492-3.7422l-1.6445-2.2422-2.3164-1.4766c-13.055-8.3164-25.199-6.2539-34.043-4.7383-5.2695 0.875-8.6641 1.3672-11.543 0.53906-5.543-1.6797-18.312-12.086-21.562-16.906l-2.7852-4.1875c-4.0664-18.781-5.4727-38.449-4.4023-61.199 0.26563-5.6406 0.91016-10.957 1.5234-16.246 1.1055-9.2891 2.2422-18.898 1.6797-29.941-0.37109-7.6562-2.3516-14.137-4.0938-19.859-1.5234-5.0742-2.8555-9.457-2.8086-13.715 0.12109-8.0273 3-18.156 8.3398-29.281 6.6484-13.812 10.738-41.23 10.285-55.824 8.7461 19.355 14.902 39.91 20.074 59.844 5.6289 21.707 19.523 39.625 30.719 54.035 5.1367 6.625 7.7539 13.188 10.801 20.762 2.3398 5.8086 4.9922 12.422 8.9883 19.285 6.707 11.508 15.926 19.512 24.086 26.566 8.5547 7.4141 15.938 13.812 20.125 23.305 1.8125 4.1406 3.0234 9.5039 4.3086 15.18 1.4023 6.2539 2.9766 13.117 5.7227 19.715-19.148 7.8438-38.816 14.562-59.004 20.129zm134.4-58.281c-3.0703 1.2734-6.1445 2.5547-9.2148 3.7305-7.6328 2.9531-15.539 6-24.383 10.957-6.5508 3.707-11.41 6.3477-16.188 7.5469-0.96094-3.1797-1.7539-6.6953-2.5664-10.285-1.5469-6.7812-3.1328-13.789-6.0859-20.52-6.8398-15.602-17.988-25.246-27.828-33.758-7.3203-6.3359-13.656-11.82-17.879-19.094-2.9141-5.0156-4.9453-10.094-7.1172-15.457-3.3594-8.4102-7.2109-17.977-14.867-27.84-10.02-12.91-21.359-27.527-25.453-43.332-7.9805-30.863-17.953-63.457-36.59-92.508-0.71875-1.1172-1.5586-2.0508-2.3164-3.1328 0.070312-2.7461 0.13281-5.5195 0.16797-8.2578 0.058593-3.7188 0.097656-7.4531 0.26562-11.172 0.70703-14.531 0.86328-29.316 1.0078-44.148 0.14453-15.383 0.53906-31.031 1.3672-46.465 3.4219 6.2266 6.5898 12.227 7.9922 18.012 2.7852 11.508 8.6289 21.121 13.777 29.629 4.4141 7.2734 19.523 33.719 24.145 52.934 4.6094 19.223 1.4766 45.395 4.4648 57.266l2.4961 9.7812c5.1602 19.297 16.105 34.512 26.699 49.211 3.625 5.0391 7.2461 10.078 10.598 15.254 9.0703 14.125 11.305 26.363 14.16 41.867 1.043 5.7461 2.1484 11.762 3.6367 18.254 2.5078 10.801 6.6719 24.793 16.754 37.141 1.1172 1.3438 2.2578 2.8906 3.4336 4.4883 6.0586 8.0898 13.559 18.133 24.984 20.242 8.6992 1.5703 18.227-1.0078 26.629-3.3242 3.5625-0.99609 6.9844-2.0156 10.512-2.375 1.8828-0.20312 4.3203-0.40625 6.6133-0.53906-3.0703 1.9453-6.0938 3.9844-9.2148 5.8945zm170.07-806.14v23.352c-6-7.957-12.254-15.719-18.66-23.352zm-444.36-169.42c137.62 0 263.02 53.16 356.9 139.91l-321.2 0.003907v1.0078c-10.871-5.8789-23.148-9.5391-36.359-9.5391-13.32 0-25.691 3.707-36.637 9.707v-1.1758h-319.59c93.875-86.75 219.26-139.91 356.89-139.91zm-439.08 169.42h13.379c-4.5703 5.4609-9 11.016-13.379 16.645zm-87.324 357.01c0-86.207 20.941-167.54 57.828-239.41v478.84c-36.891-71.883-57.828-153.22-57.828-239.43zm87.324 526.41v-186.05c66.215 85.211 156.57 150.67 260.76 186.05zm883.44 0h-266.06c38.594-13.105 75.359-30.18 109.64-51.023 0.875-0.37109 1.6445-0.625 2.5547-1.043 5.8672-2.6172 13.824-6.3008 19.344-12.996 51.637-34.801 97.129-78.023 134.52-127.7z"/>
</svg>
